<svg version="1.0" xmlns="http://www.w3.org/2000/svg"
     width="40.000000px" height="40.000000px" viewBox="0 0 500.000000 480.000000"
     preserveAspectRatio="xMidYMid meet">

    <g transform="translate(0.000000,500.000000) scale(0.100000,-0.100000)"
       fill="#FFBF00" stroke="none">
        <path d="M2295 4411 c-568 -104 -1046 -447 -1316 -946 -84 -155 -159 -386
-195 -600 -26 -152 -24 -410 4 -550 75 -378 226 -667 491 -938 255 -262 593
-444 981 -529 92 -20 133 -23 325 -23 252 0 325 12 560 89 150 50 259 100 395
182 114 69 176 118 294 232 276 268 426 527 515 887 33 136 44 234 44 395 0
454 -173 898 -482 1234 -117 127 -190 190 -326 281 -205 136 -415 225 -665
280 -118 27 -494 30 -625 6z m555 -96 c219 -36 395 -103 612 -232 252 -151
478 -388 621 -653 51 -96 100 -214 128 -310 22 -77 22 -73 7 -64 -8 5 -9 2 -5
-9 23 -56 23 -54 3 -34 -21 21 -22 21 -30 1 -4 -10 -2 -13 7 -8 8 6 8 3 -1 -8
-10 -13 -11 -22 -2 -38 6 -12 9 -24 6 -28 -3 -3 -6 0 -6 7 0 7 -4 10 -9 7 -5
-3 -13 0 -18 7 -15 20 -44 147 -37 159 4 7 3 8 -4 4 -7 -4 -12 -1 -12 8 0 27
-70 195 -104 250 -173 282 -377 489 -642 649 -34 20 -66 37 -70 37 -5 0 -25 8
-44 19 -64 34 -231 92 -338 117 -133 31 -384 43 -513 25 -403 -58 -734 -236
-1019 -547 -221 -242 -336 -485 -386 -816 -11 -78 -20 -105 -34 -115 -11 -8
-31 -33 -45 -57 -46 -78 -31 -168 40 -246 16 -17 29 -56 45 -128 41 -199 137
-431 227 -553 152 -205 281 -332 458 -450 110 -73 275 -160 328 -173 17 -4 25
-11 21 -18 -4 -7 -3 -8 5 -4 11 7 165 -38 187 -55 6 -5 14 -6 17 -2 4 3 7 2 7
-4 0 -6 9 -13 20 -16 11 -3 18 -1 14 4 -9 15 13 10 26 -6 7 -8 20 -15 29 -15
14 0 14 -2 1 -10 -12 -8 -12 -10 5 -11 11 -1 0 -6 -25 -12 -42 -10 -43 -11
-15 -15 17 -2 35 -8 40 -14 7 -7 0 -8 -20 -4 -16 3 -50 8 -75 10 -25 3 -64 12
-87 20 -24 8 -43 13 -43 11 0 -2 -33 7 -72 20 -113 38 -384 179 -473 246 -44
33 -101 75 -126 94 -25 19 -74 67 -110 107 -35 40 -79 88 -97 108 -56 59 -180
253 -232 362 -92 194 -144 430 -144 658 -1 269 61 554 164 760 179 358 460
639 819 820 281 141 674 198 1001 145z m-215 -180 c34 -33 33 -84 0 -123 -20
-23 -25 -41 -25 -81 0 -50 -1 -51 -30 -51 -29 0 -30 1 -30 52 0 43 -5 57 -27
80 -78 82 33 203 112 123z m-297 -71 c26 -18 29 -65 7 -104 -8 -14 -14 -44
-15 -67 0 -37 -3 -42 -30 -52 l-30 -10 0 59 c0 39 -5 62 -14 67 -15 9 -36 46
-36 63 0 20 48 60 72 60 13 0 34 -7 46 -16z m570 0 c28 -20 30 -74 3 -99 -13
-11 -21 -33 -23 -64 -3 -44 -4 -46 -33 -46 -29 0 -30 2 -37 60 -4 33 -10 74
-13 92 -13 58 51 94 103 57z m-894 -46 c38 -16 59 -54 51 -89 -4 -16 -11 -29
-17 -29 -6 0 -8 -6 -5 -14 6 -15 -27 -48 -39 -38 -3 4 -1 -4 6 -18 12 -23 12
-24 -4 -11 -9 8 -19 11 -23 7 -3 -3 -1 -6 6 -6 7 0 9 -4 6 -10 -3 -5 0 -10 7
-11 7 0 0 -5 -15 -11 -70 -25 -157 35 -157 108 0 101 94 164 184 122z m1184 0
c7 -7 12 -15 12 -18 0 -14 -83 -91 -94 -87 -6 2 -16 -5 -23 -17 -11 -20 -12
-19 -13 12 0 47 26 91 63 107 40 18 40 18 55 3z m-1162 -245 c0 -10 5 -17 12
-15 8 1 11 -2 7 -9 -5 -8 -12 -6 -22 4 -9 8 -12 20 -9 26 10 16 14 14 12 -6z
m764 -45 c166 -64 277 -142 377 -263 45 -55 117 -191 108 -205 -3 -4 1 -11 7
-13 9 -4 10 -6 1 -6 -6 -1 -15 4 -18 9 -3 6 -14 10 -23 10 -13 0 -13 -2 4 -16
16 -13 16 -15 2 -10 -10 3 -18 1 -18 -5 0 -6 -4 -8 -9 -4 -6 3 -7 -58 -4 -157
9 -264 -18 -339 -201 -543 -166 -186 -196 -253 -196 -433 0 -48 -3 -117 -7
-154 l-6 -68 -43 0 -44 0 0 259 c0 299 -5 282 105 346 64 38 109 81 168 161
53 72 18 159 -64 159 -73 0 -109 -70 -75 -147 6 -14 -5 -26 -56 -57 -118 -75
-137 -90 -160 -133 -22 -41 -23 -54 -26 -315 l-3 -273 -45 0 -44 0 0 268 0
268 -26 52 c-22 44 -37 59 -94 92 -38 22 -82 51 -98 65 -29 24 -30 26 -15 55
35 70 -39 146 -112 116 -43 -18 -66 -78 -44 -118 52 -94 118 -161 201 -204 80
-40 78 -34 78 -332 l0 -263 -87 3 -88 3 -6 115 c-9 184 -57 297 -177 418 -175
175 -256 357 -256 577 0 171 36 291 132 433 90 135 226 243 367 292 132 46
156 50 295 46 115 -3 145 -7 200 -28z m-1220 3 c12 -23 5 -47 -17 -55 -33 -13
-57 36 -31 62 18 18 36 15 48 -7z m2058 -17 c3 -33 -14 -49 -42 -38 -37 14
-22 78 17 72 16 -2 23 -11 25 -34z m-1808 6 c50 -50 -7 -114 -71 -80 -27 15
-25 64 3 84 30 21 44 20 68 -4z m1568 4 c17 -12 22 -24 20 -47 -4 -39 -43 -57
-83 -39 -33 15 -35 64 -3 86 28 20 38 20 66 0z m-1749 -160 c17 -14 31 -32 31
-40 0 -10 22 -14 90 -16 l90 -3 -22 -32 c-22 -31 -26 -33 -89 -33 -53 0 -69
-4 -84 -20 -38 -42 -128 -31 -155 19 -20 39 -12 91 19 122 37 37 79 38 120 3z
m1968 11 c28 -19 47 -84 34 -117 -23 -60 -108 -83 -154 -40 -16 15 -36 22 -63
22 -39 0 -114 40 -114 60 0 6 34 10 75 10 58 0 75 3 75 14 0 8 14 26 31 40 35
30 83 34 116 11z m-2217 -60 c14 -17 7 -43 -15 -52 -24 -8 -39 12 -31 41 7 29
27 34 46 11z m2404 -9 c9 -13 7 -20 -8 -31 -32 -24 -62 15 -34 43 15 15 28 11
42 -12z m-2454 -145 c24 -17 43 -47 54 -83 5 -16 22 -18 165 -18 l160 0 -10
-30 -11 -30 -154 0 -154 0 -32 -35 c-22 -23 -45 -38 -68 -41 -146 -23 -211
186 -77 247 47 21 87 18 127 -10z m2592 1 c38 -22 62 -75 55 -123 -6 -44 -36
-90 -55 -84 -7 3 -10 0 -7 -5 3 -5 -7 -12 -22 -16 -15 -3 -33 -7 -39 -9 -19
-6 -92 32 -104 54 -10 20 -19 21 -140 21 l-130 0 -32 30 -33 29 158 1 c135 0
157 2 157 15 0 35 33 77 73 95 45 20 73 18 119 -8z m-2506 -352 l244 0 0 -40
0 -40 -60 0 -61 0 3 -57 3 -58 66 -3 67 -3 10 -39 10 -40 -70 0 c-123 0 -168
39 -168 146 l0 56 -172 -3 c-95 -2 -179 0 -185 4 -7 5 -13 21 -13 36 0 37 19
54 54 47 16 -3 138 -6 272 -6z m2610 -11 c17 -19 17 -23 3 -47 l-15 -27 -177
4 -177 3 0 -54 c0 -61 -25 -117 -61 -135 -13 -7 -61 -13 -105 -13 l-82 0 10
40 10 39 72 3 71 3 3 58 3 57 -66 0 -65 0 0 40 0 40 253 3 c138 1 264 3 278 5
16 1 33 -6 45 -19z m-2681 -174 c28 -28 31 -53 10 -81 -8 -11 -14 -41 -15 -71
l0 -53 202 -2 202 -3 13 -32 13 -33 -215 0 -214 0 -3 -71 c-2 -54 -7 -75 -20
-82 -32 -20 -48 8 -48 84 l0 69 -45 0 c-45 0 -45 0 -45 35 0 35 0 35 45 35
l45 0 0 45 c0 27 -8 57 -20 77 -27 44 -25 62 6 87 35 27 59 26 89 -4z m2509 4
c31 -25 33 -57 6 -92 -13 -17 -20 -40 -20 -71 l0 -46 50 0 c46 0 50 2 65 33
20 42 62 67 115 67 36 0 48 -6 81 -39 35 -35 39 -44 37 -85 0 -26 -5 -49 -10
-52 -4 -3 -5 1 -2 9 3 8 -3 20 -12 28 -15 13 -16 11 -9 -11 7 -24 6 -24 -8 -6
-14 19 -15 19 -30 -11 -9 -16 -30 -36 -47 -43 -16 -7 -30 -17 -30 -22 0 -6 8
-4 18 3 15 13 16 12 3 -3 -11 -14 -11 -18 -1 -18 8 0 11 -2 8 -5 -12 -13 -89
29 -105 56 -16 26 -23 29 -70 29 l-53 0 0 -70 c0 -56 -3 -71 -17 -78 -35 -18
-43 -4 -43 74 l0 74 -215 0 c-119 0 -215 4 -215 9 0 5 8 19 19 32 17 22 25 23
215 27 l196 5 0 52 c0 35 -5 57 -15 65 -24 20 -18 66 11 89 15 12 32 21 39 21
7 0 24 -9 39 -21z m-2711 -24 c1 -5 -6 -11 -15 -13 -11 -2 -18 3 -18 13 0 17
30 18 33 0z m2867 1 c0 -15 -24 -28 -34 -19 -13 14 -5 33 14 33 11 0 20 -6 20
-14z m-2925 -96 c4 -6 -6 -20 -20 -33 -15 -12 -40 -34 -56 -49 -16 -16 -33
-28 -38 -28 -5 0 -14 -7 -21 -15 -33 -39 -41 9 -12 64 29 53 127 94 147 61z
m3075 -206 c0 -8 -19 -13 -24 -6 -3 5 1 9 9 9 8 0 15 -2 15 -3z m-2422 -87 c4
-34 -13 -57 -42 -57 -28 0 -46 18 -46 45 0 30 20 46 55 43 25 -2 31 -8 33 -31z
m1716 17 c20 -20 20 -33 -1 -56 -21 -23 -36 -23 -59 3 -16 17 -16 22 -4 29 8
6 11 10 6 10 -14 0 15 30 30 30 7 0 20 -7 28 -16z m194 -76 l3 -88 54 0 c49 0
55 3 71 29 51 87 183 76 222 -18 12 -32 12 -34 -2 -22 -13 11 -16 11 -16 -2 0
-8 -7 -17 -15 -21 -8 -3 -15 -12 -15 -20 0 -22 -38 -54 -90 -77 l-45 -20 -20
24 c-11 13 -24 31 -30 40 -6 9 -30 17 -62 20 l-53 4 0 -203 c0 -197 -1 -203
-21 -209 -12 -4 -25 -3 -30 2 -8 8 -16 161 -18 341 l-1 62 -60 0 -60 0 0 -210
c0 -243 1 -222 -11 -237 -7 -8 2 -17 34 -31 52 -23 65 -38 38 -47 -15 -5 -18
-13 -13 -50 4 -37 2 -45 -12 -45 -9 0 -15 -6 -13 -12 1 -7 -8 -14 -20 -16 -13
-2 -31 -14 -42 -28 -10 -13 -26 -24 -36 -24 -9 0 -25 -4 -35 -10 -16 -8 -21
-3 -40 35 -37 77 -6 164 70 195 22 9 28 16 21 23 -6 6 -11 44 -11 84 l0 73
-75 0 c-67 0 -79 -3 -100 -25 l-25 -24 0 -267 c0 -179 4 -278 12 -300 20 -57
-32 -106 -82 -74 -12 8 -14 44 -12 232 5 342 10 436 28 470 23 44 83 68 177
68 l77 0 0 110 0 110 -155 0 -155 0 19 33 c22 41 50 45 299 46 l182 1 0 66 c0
77 12 106 43 102 20 -3 22 -9 25 -90z m-2168 58 c0 -3 -4 -8 -10 -11 -5 -3
-10 -1 -10 4 0 6 5 11 10 11 6 0 10 -2 10 -4z m350 -21 c0 -8 -7 -15 -15 -15
-8 0 -15 7 -15 15 0 8 7 15 15 15 8 0 15 -7 15 -15z m-539 -51 c17 -8 37 -30
45 -49 17 -43 18 -95 2 -96 -10 0 -10 -2 -1 -5 7 -3 9 -12 6 -20 -3 -7 -10
-11 -15 -8 -6 4 -9 1 -6 -7 6 -17 -14 -38 -39 -42 -10 -2 -26 -7 -35 -11 -24
-11 -81 10 -108 39 -29 31 -37 99 -17 146 25 60 105 86 168 53z m719 -96 c11
-18 20 -36 20 -40 0 -5 -68 -8 -150 -8 l-151 0 3 -112 3 -113 97 -5 c77 -4
100 -9 118 -25 48 -44 50 -57 50 -344 0 -232 2 -275 17 -305 13 -29 14 -40 5
-61 -23 -50 -86 -51 -110 -2 -11 22 -10 31 3 56 12 25 15 76 15 300 l0 270
-26 20 c-22 17 -41 21 -100 21 l-74 0 0 -85 c0 -82 1 -85 30 -107 25 -18 41
-43 45 -68 0 -3 4 -10 8 -17 11 -18 -3 -64 -17 -56 -8 5 -8 3 -1 -8 15 -20 12
-55 -4 -51 -9 2 -11 -3 -7 -15 6 -14 5 -15 -5 -6 -8 9 -9 16 -2 25 6 8 7 21 2
33 -7 19 -8 19 -8 -2 -1 -12 -6 -25 -12 -29 -8 -4 -9 0 -4 15 9 28 2 27 -33
-9 -17 -17 -26 -30 -21 -30 6 0 -1 -11 -15 -24 -32 -29 -61 -25 -108 14 -32
27 -33 30 -33 103 0 66 3 79 24 101 14 14 39 31 58 38 l33 12 0 233 0 233 -60
0 -60 0 0 40 0 40 225 0 225 0 20 -32z m49 -179 c5 -16 6 -31 2 -33 -4 -3 -33
-6 -64 -7 -56 -2 -87 10 -87 37 0 28 26 39 83 36 51 -4 56 -6 66 -33z m1136
-4 c0 -27 -4 -30 -32 -33 -30 -3 -33 -1 -33 26 0 36 8 44 40 40 20 -2 25 -8
25 -33z m-1911 -76 c66 -52 -5 -152 -73 -101 -37 27 -37 91 -1 109 34 17 43
16 74 -8z m2639 -11 c22 -27 22 -53 -3 -78 -40 -40 -110 -15 -110 39 1 65 69
89 113 39z m-2073 -191 c0 -19 -10 -27 -26 -20 -21 8 -17 33 6 33 11 0 20 -6
20 -13z m1450 -2 c0 -8 -7 -15 -15 -15 -8 0 -15 7 -15 15 0 8 7 15 15 15 8 0
15 -7 15 -15z m-1895 -45 c0 -20 -6 -26 -26 -28 -30 -4 -46 22 -28 45 20 23
54 12 54 -17z m1559 24 c12 -5 13 -10 4 -30 -10 -22 -16 -23 -112 -26 -74 -2
-100 -6 -98 -15 1 -10 -64 -13 -301 -13 -318 0 -327 1 -327 45 0 45 3 45 421
45 219 0 404 -3 413 -6z m801 -24 c0 -18 -6 -26 -23 -28 -13 -2 -25 3 -28 12
-10 26 4 48 28 44 17 -2 23 -10 23 -28z m-799 -175 c4 -8 1 -22 -6 -30 -10
-12 -56 -15 -259 -17 -190 -2 -245 -6 -244 -15 4 -16 -278 -18 -308 -3 -22 12
-27 65 -6 73 6 3 193 6 415 6 351 1 403 -1 408 -14z m-1211 -75 c3 -6 -1 -7
-9 -4 -18 7 -21 14 -7 14 6 0 13 -4 16 -10z m1107 -109 c-8 -4 -13 -12 -11
-17 6 -28 -52 -34 -331 -34 -242 0 -289 2 -308 16 -12 8 -22 22 -22 30 0 12
51 14 343 14 190 0 336 -4 329 -9z m-1034 -34 c2 -10 -3 -17 -12 -17 -18 0
-29 16 -21 31 9 14 29 6 33 -14z m1487 3 c0 -7 -6 -15 -12 -17 -8 -3 -13 4
-13 17 0 13 5 20 13 18 6 -3 12 -11 12 -18z m-654 -149 c-6 -10 -27 -26 -47
-36 -49 -23 -164 -17 -202 12 -52 39 -42 43 113 43 139 0 145 -1 136 -19z"/>
        <path d="M2541 3516 c-25 -14 -50 -51 -51 -76 0 -8 7 -28 15 -44 11 -21 15
-65 15 -177 l0 -149 -79 0 c-43 0 -106 -3 -141 -7 l-63 -6 7 54 c4 30 16 74
27 98 24 54 24 64 1 84 -26 24 -59 21 -76 -5 -24 -38 -47 -118 -53 -185 l-6
-62 -46 -6 c-71 -10 -81 -15 -92 -42 -7 -19 -6 -32 6 -49 16 -26 37 -29 96
-15 37 8 37 8 43 -29 3 -21 14 -48 25 -61 16 -20 23 -22 47 -13 28 10 29 12
27 71 l-3 60 68 7 c37 3 100 6 140 6 l72 0 0 -199 c0 -110 4 -211 10 -225 12
-33 55 -45 78 -22 15 14 17 47 20 231 l3 215 63 0 c35 0 98 -3 140 -7 l77 -6
-7 -54 c-7 -62 4 -83 47 -83 32 0 56 28 65 77 l6 32 57 -6 c57 -5 58 -5 70 25
9 22 10 36 2 50 -12 22 -23 27 -87 37 l-41 6 -6 67 c-3 37 -13 87 -22 111 -10
30 -12 48 -5 55 5 5 10 27 10 48 0 52 -35 88 -85 88 -78 0 -114 -94 -61 -157
25 -30 56 -119 56 -164 l0 -26 -137 5 c-76 2 -139 5 -140 6 -1 1 -3 68 -4 148
-1 120 2 151 15 170 48 68 -32 164 -103 124z"/>
    </g>
</svg>
